<svg width="80" height="42" viewBox="0 0 80 42" fill="none" xmlns="http://www.w3.org/2000/svg">
<path fill-rule="evenodd" clip-rule="evenodd" d="M56.7024 12.1859L56.7117 12.1956L56.7215 12.2049C57.1123 12.5722 57.5883 12.7645 58.1251 12.7645C58.6627 12.7645 59.1365 12.5713 59.5163 12.1955C59.9051 11.8108 60.1135 11.337 60.1135 10.7971C60.1135 10.2608 59.9074 9.79259 59.5164 9.42055C59.1404 9.03367 58.6671 8.82979 58.1251 8.82979C57.5796 8.82979 57.1006 9.03598 56.7118 9.42066C56.332 9.79647 56.1367 10.2653 56.1367 10.7971C56.1367 11.3283 56.3311 11.7993 56.7024 12.1859ZM56.8781 27.4843L56.8909 27.4981L56.9047 27.5109C57.2428 27.8263 57.6619 27.9785 58.1255 27.9785C58.5964 27.9785 59.0268 27.8307 59.3598 27.4979L59.3664 27.4912L59.3729 27.4843C59.6884 27.1464 59.8407 26.7275 59.8407 26.2641V16.0761C59.8407 15.6054 59.6928 15.1752 59.3598 14.8424C59.0268 14.5095 58.5964 14.3617 58.1255 14.3617C57.6619 14.3617 57.2428 14.5139 56.9047 14.8293L56.8978 14.8357L56.8912 14.8424C56.5581 15.1752 56.4103 15.6054 56.4103 16.0761V26.2641C56.4103 26.7275 56.5625 27.1464 56.8781 27.4843ZM11.3217 26.8812L11.3188 26.8796C10.2898 26.2884 9.47316 25.4804 8.87567 24.4622L8.87306 24.4578L8.87054 24.4533C8.28556 23.4115 8 22.2311 8 20.9269C8 19.609 8.28495 18.4268 8.87237 17.3972L8.87377 17.3948C9.47091 16.3608 10.2887 15.5502 11.3217 14.9725C12.3616 14.3758 13.5496 14.0851 14.869 14.0851C16.1745 14.0851 17.3546 14.3764 18.3935 14.9725C19.4264 15.5501 20.2371 16.3611 20.8192 17.396C21.4222 18.4255 21.7152 19.6083 21.7152 20.9269C21.7152 22.2311 21.4296 23.4115 20.8446 24.4533L20.8428 24.4565C20.2601 25.4778 19.4496 26.2876 18.4192 26.8796L18.4164 26.8812L18.4135 26.8828C17.3739 27.4635 16.187 27.746 14.869 27.746C13.5511 27.746 12.3642 27.4635 11.3246 26.8828L11.3217 26.8812ZM17.9143 22.8697L17.9168 22.8653C18.2177 22.3216 18.3764 21.6807 18.3764 20.9269C18.3764 20.1731 18.2177 19.5322 17.9168 18.9884L17.9131 18.9818L17.9096 18.975C17.6185 18.4121 17.2148 17.9827 16.6949 17.6741C16.1786 17.3676 15.5756 17.2073 14.869 17.2073C14.1624 17.2073 13.5594 17.3676 13.0431 17.6741C12.5211 17.984 12.1077 18.4163 11.801 18.9838L11.7997 18.9861L11.7984 18.9884C11.4975 19.5322 11.3388 20.1731 11.3388 20.9269C11.3388 21.6807 11.4975 22.3216 11.7984 22.8653C12.1043 23.418 12.5178 23.8451 13.0431 24.157C13.5594 24.4635 14.1624 24.6238 14.869 24.6238C15.5756 24.6238 16.1786 24.4635 16.6949 24.157C17.2181 23.8464 17.6219 23.4221 17.912 22.8741L17.9143 22.8697ZM38.5552 27.2114L38.5681 27.2251L38.5818 27.2378C38.9199 27.55 39.339 27.7006 39.8026 27.7006C40.2735 27.7006 40.7039 27.5543 41.0369 27.2248L41.0436 27.2182L41.05 27.2114C41.3656 26.8769 41.5178 26.4622 41.5178 26.0036V19.5217C41.5178 18.4181 41.3163 17.4455 40.8864 16.626C40.4757 15.7988 39.884 15.157 39.1108 14.7224C38.3465 14.2927 37.48 14.0851 36.5271 14.0851C35.4534 14.0851 34.4753 14.3147 33.6067 14.7865L33.6047 14.7876L33.6027 14.7887C33.2092 15.0068 32.8548 15.2653 32.5403 15.5634C32.2367 15.2293 31.8844 14.9479 31.4831 14.7224C30.7188 14.2927 29.8524 14.0851 28.8994 14.0851C27.908 14.0851 27.0061 14.3191 26.2099 14.7986C26.1277 14.8481 26.0474 14.8996 25.969 14.9531C25.9095 14.8626 25.8395 14.7769 25.7587 14.6969C25.4257 14.3674 24.9953 14.2211 24.5244 14.2211C24.0608 14.2211 23.6417 14.3717 23.3036 14.6839L23.2967 14.6903L23.2901 14.6969C22.957 15.0264 22.8092 15.4522 22.8092 15.9182V26.0036C22.8092 26.4622 22.9614 26.8769 23.277 27.2114L23.2898 27.2251L23.3036 27.2378C23.6417 27.55 24.0608 27.7006 24.5244 27.7006C24.9953 27.7006 25.4257 27.5543 25.7587 27.2248L25.7653 27.2182L25.7718 27.2114C26.0873 26.8769 26.2396 26.4622 26.2396 26.0036V19.6124C26.2396 18.8849 26.4585 18.329 26.8691 17.8989C27.2792 17.4692 27.7892 17.2526 28.4413 17.2526C29.0819 17.2526 29.5537 17.4443 29.9099 17.7967L29.913 17.7998L29.9162 17.8029C30.2424 18.1152 30.4597 18.6487 30.4597 19.5217V26.0036C30.4597 26.4622 30.612 26.8769 30.9275 27.2114L30.9404 27.2251L30.9542 27.2378C31.2923 27.55 31.7114 27.7006 32.1749 27.7006C32.6459 27.7006 33.0762 27.5543 33.4092 27.2248L33.4159 27.2182L33.4223 27.2114C33.7379 26.8769 33.8901 26.4622 33.8901 26.0036V19.6124C33.8901 18.8821 34.1034 18.325 34.4995 17.896C34.9092 17.4682 35.4184 17.2526 36.0689 17.2526C36.7096 17.2526 37.1814 17.4443 37.5375 17.7967L37.5407 17.7998L37.5439 17.8029C37.87 18.1152 38.0874 18.6487 38.0874 19.5217V26.0036C38.0874 26.4622 38.2396 26.8769 38.5552 27.2114ZM52.4939 27.2114L52.5068 27.2251L52.5206 27.2378C52.8586 27.55 53.2778 27.7006 53.7413 27.7006C54.2047 27.7006 54.6245 27.5496 54.9527 27.2248C55.2885 26.8926 55.4565 26.4736 55.4565 26.0036V20.4283C55.4565 19.1074 55.1994 17.9541 54.6553 16.9936C54.1338 16.0462 53.4031 15.3199 52.467 14.8303C51.5533 14.3292 50.5226 14.0851 49.3892 14.0851C48.2982 14.0851 47.298 14.3231 46.4008 14.8088C46.22 14.9067 46.0464 15.012 45.8804 15.1247C45.8035 14.9609 45.698 14.8095 45.5613 14.6742C45.2283 14.3447 44.7979 14.1984 44.327 14.1984C43.8634 14.1984 43.4443 14.3491 43.1062 14.6613L43.0993 14.6676L43.0927 14.6742C42.7597 15.0037 42.6118 15.4295 42.6118 15.8955V26.0036C42.6118 26.4622 42.764 26.8769 43.0796 27.2114L43.0924 27.2251L43.1062 27.2378C43.4443 27.55 43.8634 27.7006 44.327 27.7006C44.7979 27.7006 45.2283 27.5543 45.5613 27.2248L45.568 27.2182L45.5744 27.2114C45.8899 26.8769 46.0422 26.4622 46.0422 26.0036V19.6124C46.0422 19.1572 46.1644 18.778 46.3984 18.4538L46.401 18.4502L46.4036 18.4465C46.6525 18.0894 46.9915 17.8001 47.4349 17.5808C47.8704 17.3653 48.3656 17.2526 48.9311 17.2526C49.5612 17.2526 50.0913 17.3742 50.5363 17.6007L50.5445 17.6048L50.5529 17.6088C50.9978 17.8167 51.3518 18.1391 51.6196 18.5932C51.8767 19.0294 52.0261 19.6291 52.0261 20.4283V26.0036C52.0261 26.4622 52.1784 26.8769 52.4939 27.2114Z" fill="white"/>
<path fill-rule="evenodd" clip-rule="evenodd" d="M67.2409 9.95104L61.7298 30.7404C61.3549 32.1549 62.4361 33.5851 63.9267 33.5851C64.9474 33.5851 65.8489 32.8889 66.108 31.9094L71.6065 11.12C71.9816 9.70164 70.9029 8.27657 69.4172 8.27657C68.3988 8.27657 67.5008 8.97037 67.2409 9.95104Z" fill="white"/>
</svg>
