<svg width="62" height="17" viewBox="0 0 62 17" fill="none" xmlns="http://www.w3.org/2000/svg">
<g id="Group 6543">
<path id="Union" fill-rule="evenodd" clip-rule="evenodd" d="M4.07128 1.63916L0.547834 14.7822C0.308104 15.6764 0.9994 16.5806 1.95238 16.5806C2.60497 16.5806 3.18132 16.1404 3.34695 15.5212L6.86241 2.37817C7.10225 1.4815 6.41257 0.580566 5.46268 0.580566C4.81157 0.580566 4.23749 1.01919 4.07128 1.63916Z" fill="white"/>
<path id="Union_2" fill-rule="evenodd" clip-rule="evenodd" d="M13.1484 1.63916L9.62498 14.7822C9.38525 15.6764 10.0765 16.5806 11.0295 16.5806C11.6821 16.5806 12.2585 16.1404 12.4241 15.5212L15.9396 2.37817C16.1794 1.4815 15.4897 0.580566 14.5398 0.580566C13.8887 0.580566 13.3146 1.01919 13.1484 1.63916Z" fill="#FFF852"/>
<path id="Union_3" fill-rule="evenodd" clip-rule="evenodd" d="M22.2256 1.63916L18.7021 14.7822C18.4624 15.6764 19.1537 16.5806 20.1067 16.5806C20.7593 16.5806 21.3356 16.1404 21.5013 15.5212L25.0167 2.37817C25.2565 1.4815 24.5669 0.580566 23.617 0.580566C22.9659 0.580566 22.3918 1.01919 22.2256 1.63916Z" fill="#3AD9A0"/>
<path id="Union_4" fill-rule="evenodd" clip-rule="evenodd" d="M31.3027 1.63916L27.7793 14.7822C27.5395 15.6764 28.2308 16.5806 29.1838 16.5806C29.8364 16.5806 30.4128 16.1404 30.5784 15.5212L34.0939 2.37817C34.3337 1.4815 33.644 0.580566 32.6941 0.580566C32.043 0.580566 31.4689 1.01919 31.3027 1.63916Z" fill="#00A3FF"/>
<path id="Union_5" fill-rule="evenodd" clip-rule="evenodd" d="M40.3799 1.63916L36.8564 14.7822C36.6167 15.6764 37.308 16.5806 38.261 16.5806C38.9136 16.5806 39.4899 16.1404 39.6555 15.5212L43.171 2.37817C43.4108 1.4815 42.7212 0.580566 41.7713 0.580566C41.1202 0.580566 40.5461 1.01919 40.3799 1.63916Z" fill="#905BFF"/>
<path id="Union_6" fill-rule="evenodd" clip-rule="evenodd" d="M49.456 1.63916L45.9326 14.7822C45.6929 15.6764 46.3842 16.5806 47.3371 16.5806C47.9897 16.5806 48.5661 16.1404 48.7317 15.5212L52.2472 2.37817C52.487 1.4815 51.7973 0.580566 50.8474 0.580566C50.1963 0.580566 49.6223 1.01919 49.456 1.63916Z" fill="#FF406E"/>
<path id="Union_7" fill-rule="evenodd" clip-rule="evenodd" d="M58.5332 1.63916L55.0097 14.7822C54.77 15.6764 55.4613 16.5806 56.4143 16.5806C57.0669 16.5806 57.6432 16.1404 57.8089 15.5212L61.3243 2.37817C61.5642 1.4815 60.8745 0.580566 59.9246 0.580566C59.2735 0.580566 58.6994 1.01919 58.5332 1.63916Z" fill="#FF4601"/>
</g>
</svg>
